<svg xmlns="http://www.w3.org/2000/svg" xmlns:xlink="http://www.w3.org/1999/xlink" xmlns:lucid="lucid" width="886" height="580"><g transform="translate(-304 -743)" lucid:page-tab-id="0_0"><path d="M0 0h1870.4v1323.2H0z" fill="#fff"/><path d="M340 740h800v110.96H340z" stroke="#000" stroke-opacity="0" stroke-width="2" fill="#fff" fill-opacity="0"/><use xlink:href="#a" transform="matrix(1,0,0,1,345,745.0000000000014) translate(232.0680000000001 60.184722222222206)"/><use xlink:href="#b" transform="matrix(1,0,0,1,345,745.0000000000014) translate(431.06399999999996 60.184722222222206)"/><path d="M820 840h160v120H820z" stroke="#000" stroke-width="2" fill="#c1e4f7"/><use xlink:href="#c" transform="matrix(1,0,0,1,825,845) translate(51.59044444444446 48.89305555555555)"/><use xlink:href="#d" transform="matrix(1,0,0,1,825,845) translate(5.366111111111167 72.99838888888887)"/><use xlink:href="#e" transform="matrix(1,0,0,1,825,845) translate(130.2021111111111 72.99838888888887)"/><path d="M343 1200h770.03M343.08 1200H340" stroke="#000" stroke-width="6" fill="none"/><path d="M1130.3 1200l-14.27 4.64v-9.28z" stroke="#000" stroke-width="6"/><path d="M500 1040h160v120H500z" stroke="#000" stroke-width="2" fill="#fff"/><use xlink:href="#f" transform="matrix(1,0,0,1,505,1044.9999999999986) translate(53.554333333333346 48.89305555555555)"/><use xlink:href="#d" transform="matrix(1,0,0,1,505,1044.9999999999986) translate(5.366111111111167 72.99838888888887)"/><use xlink:href="#e" transform="matrix(1,0,0,1,505,1044.9999999999986) translate(130.2021111111111 72.99838888888887)"/><path d="M660 1040h160v120H660z" stroke="#000" stroke-width="2" fill="#fff"/><use xlink:href="#f" transform="matrix(1,0,0,1,665.0000000000001,1044.9999999999986) translate(53.554333333333346 48.89305555555555)"/><use xlink:href="#d" transform="matrix(1,0,0,1,665.0000000000001,1044.9999999999986) translate(5.994555555555607 72.99838888888887)"/><use xlink:href="#g" transform="matrix(1,0,0,1,665.0000000000001,1044.9999999999986) translate(130.83055555555552 72.99838888888887)"/><path d="M980 1040h160v120H980z" stroke="#000" stroke-width="2" fill="#fff"/><use xlink:href="#h" transform="matrix(1,0,0,1,985,1044.9999999999986) translate(51.59044444444446 48.89305555555555)"/><use xlink:href="#d" transform="matrix(1,0,0,1,985,1044.9999999999986) translate(5.994555555555607 72.99838888888887)"/><use xlink:href="#g" transform="matrix(1,0,0,1,985,1044.9999999999986) translate(130.83055555555552 72.99838888888887)"/><path d="M340 1040h160v120H340z" stroke="#000" stroke-width="2" fill="#fff"/><use xlink:href="#i" transform="matrix(1,0,0,1,345,1044.9999999999986) translate(49.34600000000002 48.89305555555555)"/><use xlink:href="#d" transform="matrix(1,0,0,1,345,1044.9999999999986) translate(5.994555555555607 72.99838888888887)"/><use xlink:href="#g" transform="matrix(1,0,0,1,345,1044.9999999999986) translate(130.83055555555552 72.99838888888887)"/><path d="M1000 1220h240v60h-240z" stroke="#000" stroke-opacity="0" stroke-width="2" fill="#fff" fill-opacity="0"/><g><use xlink:href="#j" transform="matrix(1,0,0,1,1005,1224.9999999999986) translate(62.767333333333355 34.44166666666666)"/></g><path d="M240 1220h240v60H240z" stroke="#000" stroke-opacity="0" stroke-width="2" fill="#fff" fill-opacity="0"/><g><use xlink:href="#k" transform="matrix(1,0,0,1,245,1224.9999999999986) translate(76.00566666666668 34.44166666666666)"/></g><path d="M680 960h240v60H680z" stroke="#000" stroke-opacity="0" stroke-width="2" fill="#fff" fill-opacity="0"/><g><use xlink:href="#l" transform="matrix(1,0,0,1,685,965) translate(49.75411111111113 30.886111111111106)"/></g><path d="M900 962v59.5" stroke="#000" stroke-width="2" fill="none"/><path d="M901 962.03h-2V961h2z"/><path d="M900 1036.76l-4.64-14.26h9.28z" stroke="#000" stroke-width="2"/><defs><path d="M23-677c-68-88 127-122 212-122 113 0 253 24 291 82 92 144-48 310-153 365-52 27-102 48-161 69-56 20-53 15-58 80-4 49-8 103-13 153-3 31-19 46-43 46-44 0-65-28-63-81 5-162 8-330 16-486 3-53-4-75-28-106zm415 73c0-44-44-66-132-66-78 0-124 8-135 26-10 16-14 89-14 218 0 44 22 39 57 25 83-34 224-115 224-203" id="m"/><path d="M608-642l-20 77c-36 56-69 94-113 138-49 48-58 40-29 81 33 46 69 89 97 147 44 89 52 141 40 147-3 38-20 49-63 52-68 5-97-106-129-160-40-68-56-162-144-164-53-1-27 78-45 121-7 56-12 123-28 170C157-4 113 24 66-1 46-11 40-39 49-87c19-111 19-139 19-313 0-144 1-187-40-242-27-37-13-94 26-108 103-36 250-59 389-41 63 8 182 85 165 149zm-140 11c-10-39-42-58-96-57-53 12-154 21-179 43-5 9-8 31-8 65 0 151 19 135 127 94 94-36 148-79 156-145" id="n"/><path d="M292-638c-67 2-113 14-176 21-81 9-112-68-58-103 132-46 304-52 470-66l65 5c50 52 43 111-50 111-45 0-75 15-112 18-18 16-19 83-24 152-7 108-21 214-33 322-5 46 36 20 67 20 54 0 81-10 139-16 43 25 50 62 23 110-151 29-311 50-490 79C58 24-8 22 3-44c14-83 161-45 224-90 22-16 24-69 29-107 17-126 33-258 36-397" id="o"/><path d="M44-443c79-191 208-366 448-366 141 0 239 118 267 253 46 222-61 413-213 490-83 42-221 78-338 30-55-23-106-43-129-82-26-14-80-140-57-202 2-41 8-89 22-123zm103 115c1 136 75 191 208 191 130 0 180-50 241-135 38-53 55-111 55-169 0-109-73-236-179-227-143 12-260 151-311 271-9 24-14 47-14 69" id="p"/><path d="M593-790c58 0 99 54 77 117-5 13-15 16-35 14-70-7-152-3-229 7-31 20-24 81-26 127-4 138-16 277-16 422 0 32 4 70-21 83-26 36-88 7-103-20 1-182 10-346 21-521 2-27 11-81-18-84-73-7-138 11-206 3-20-18-39-18-32-51-3-78 74-91 145-91 129 0 251 6 369-8 25-3 49 2 74 2" id="q"/><path d="M192-85c-3 48 46 100 89 72 52-75 73-232 102-321 46-139 146-233 278-374 22-37 2-105-46-93-81 20-199 174-252 246-53 73-46 65-110 7-63-57-96-136-132-220-11-25-31-37-54-37-36-1-56 32-56 68 32 142 118 264 224 332 15 16 24 24 21 38" id="r"/><g id="a"><use transform="matrix(0.03577777777777775,0,0,0.03577777777777775,0,0)" xlink:href="#m"/><use transform="matrix(0.03577777777777775,0,0,0.03577777777777775,20.17866666666665,0)" xlink:href="#n"/><use transform="matrix(0.03577777777777775,0,0,0.03577777777777775,42.28933333333331,0)" xlink:href="#o"/><use transform="matrix(0.03577777777777775,0,0,0.03577777777777775,65.00822222222217,0)" xlink:href="#p"/><use transform="matrix(0.03577777777777775,0,0,0.03577777777777775,93.73777777777771,0)" xlink:href="#n"/><use transform="matrix(0.03577777777777775,0,0,0.03577777777777775,115.84844444444435,0)" xlink:href="#o"/><use transform="matrix(0.03577777777777775,0,0,0.03577777777777775,138.56733333333324,0)" xlink:href="#q"/><use transform="matrix(0.03577777777777775,0,0,0.03577777777777775,164.29155555555545,0)" xlink:href="#r"/></g><path d="M690-16c1 27-22 53-49 52-21 0-47-17-78-51-31-35-50-52-55-52C384-16 286 0 174-46 66-91 12-146 12-292c0-165 91-286 178-377 58-61 105-100 201-130 173-55 319 38 370 162 9 21 40 127 19 177-19 105-68 191-126 260-19 22-27 38-27 44 1 18 74 108 63 140zM445-229c4-68-43-207 50-207 52 0 63 37 68 87 8 80 61-19 73-41 58-107 35-292-110-292-94 0-188 52-242 114-50 58-151 211-151 284 0 83 72 131 159 129 48-1 160-25 153-74" id="s"/><path d="M106-737c41-53 131 12 108 86-42 139-71 285-71 455 0 88 72 66 143 48 49-12 128-35 183-63 38-19 36-69 44-119 17-114 31-247 31-354 0-57 26-85 79-85 37 0 55 27 55 81 0 190-34 397-59 573 4 31 20 93-13 105-8 10-30 7-65-8-16-20-33-38-51-54C397-48 305 0 205 0 79 0 5-43 13-176c13-196 50-391 93-561" id="t"/><path d="M330-158c82-22 193-18 286-31 38 11 58 81 24 113-25 24-71 25-116 25-135 0-238 34-358 47C61 7 4-52 15-159c12-113 37-213 32-340-2-59 2-121-2-178-2-44 35-62 81-61 104-31 222-52 345-64 68-7 103 34 111 94 2 12-3 22-9 31-33 14-62 15-103 16-100 2-196 10-270 40h-8c-18 23-11 79-15 106-1 13 5 22 16 25 82-10 176-25 264-12 44 7 78 26 71 72-7 49-76 30-125 30-78 0-138 22-210 29-24 1-35 28-36 52-2 41-10 83-8 126-19 84 122 51 181 35" id="u"/><g id="b"><use transform="matrix(0.03577777777777775,0,0,0.03577777777777775,0,0)" xlink:href="#s"/><use transform="matrix(0.03577777777777775,0,0,0.03577777777777775,28.90844444444442,0)" xlink:href="#t"/><use transform="matrix(0.03577777777777775,0,0,0.03577777777777775,54.06022222222218,0)" xlink:href="#u"/><use transform="matrix(0.03577777777777775,0,0,0.03577777777777775,77.88822222222217,0)" xlink:href="#t"/><use transform="matrix(0.03577777777777775,0,0,0.03577777777777775,103.03999999999992,0)" xlink:href="#u"/></g><path d="M23-677c-68-88 127-122 212-122 113 0 253 24 291 82 92 144-48 310-153 365-52 27-102 48-161 69-56 20-53 15-58 80-4 49-8 103-13 153-3 31-19 46-43 46-44 0-65-28-63-81 5-162 8-330 16-486 3-53-4-75-28-106zm415 73c0-44-44-66-132-66-78 0-124 8-135 26-10 16-14 89-14 218 0 44 22 39 57 25 83-34 224-115 224-203" id="v"/><g id="c"><use transform="matrix(0.02244444444444443,0,0,0.02244444444444443,0,0)" xlink:href="#q"/><use transform="matrix(0.02244444444444443,0,0,0.02244444444444443,16.137555555555544,0)" xlink:href="#p"/><use transform="matrix(0.02244444444444443,0,0,0.02244444444444443,34.16044444444442,0)" xlink:href="#v"/></g><g id="d"><use transform="matrix(0.02244444444444443,0,0,0.02244444444444443,0,0)" xlink:href="#v"/><use transform="matrix(0.02244444444444443,0,0,0.02244444444444443,12.658666666666658,0)" xlink:href="#n"/><use transform="matrix(0.02244444444444443,0,0,0.02244444444444443,26.529333333333316,0)" xlink:href="#o"/><use transform="matrix(0.02244444444444443,0,0,0.02244444444444443,40.78155555555553,0)" xlink:href="#p"/><use transform="matrix(0.02244444444444443,0,0,0.02244444444444443,58.80444444444441,0)" xlink:href="#n"/><use transform="matrix(0.02244444444444443,0,0,0.02244444444444443,72.67511111111106,0)" xlink:href="#o"/><use transform="matrix(0.02244444444444443,0,0,0.02244444444444443,86.92733333333328,0)" xlink:href="#q"/><use transform="matrix(0.02244444444444443,0,0,0.02244444444444443,103.06488888888882,0)" xlink:href="#r"/></g><path d="M68-174c-8-157-1-333-1-488 0-23-21-28-12-60 24-87 141-85 256-77 161 12 317 42 251 258-5 17-40 45-44 60 15 30 85 80 98 123 62 108 25 192-76 258C455-45 341-9 207-4 145-2 19-30 19-85c0-36 51-41 49-89zm137-510c-18 6-26 137-16 192 30 22 66 2 112-6 70-13 158-95 159-132 17-68-169-82-255-54zm-15 330c-15 57-2 155 5 215 6 4 6 12 18 11 101-5 211-32 267-82 52-46 58-91 12-140s-73-73-81-73c-39 14-121 48-173 54-15 2-34 14-48 15" id="w"/><use transform="matrix(0.02244444444444443,0,0,0.02244444444444443,0,0)" xlink:href="#w" id="e"/><path d="M629-645c28 177 9 401 28 582 3 29-18 50-47 50-97 0-67-194-71-306-1-24-4-66-3-92 1-39-15-57-30-33-49 79-88 161-139 243-9 15-21 23-34 23-33 0-70-69-89-115-10-23-57-152-73-152-28 0-27 119-31 162-9 93-16 174-27 265-2 3-35 21-48 20-71-3-50-117-43-176 24-211 38-410 84-595 39-67 121 2 138 59 22 73 63 167 84 249 7 23 13 34 20 34 17 0 54-75 107-225 17-48 42-155 115-96 31 25 52 57 59 103" id="x"/><path d="M19-91c0-222 71-428 58-668-3-62 121-44 170-33 118 27 229 50 293 128 44 53 63 97 63 217 0 165-189 328-383 400-36 13-62 45-108 45-66 0-93-23-93-89zm185-582c-30 151-43 322-58 489 5 39 27 28 60 14 129-54 276-147 276-304 0-155-106-203-278-199" id="y"/><g id="f"><use transform="matrix(0.02244444444444443,0,0,0.02244444444444443,0,0)" xlink:href="#x"/><use transform="matrix(0.02244444444444443,0,0,0.02244444444444443,15.082666666666658,0)" xlink:href="#o"/><use transform="matrix(0.02244444444444443,0,0,0.02244444444444443,29.33488888888887,0)" xlink:href="#y"/></g><path d="M103-24C79 10-2-14 8-59c42-186 129-353 193-524 23-62 63-135 99-197 39-38 106-10 109 47 27 100 51 209 81 307 8 25 72 24 72 63 0 44-26 46-37 75 12 83 46 156 55 243 7 63-106 47-114 11-13-58-36-170-57-231-3-4-7-8-9-14-69 4-134 40-198 52-53 21-53 108-81 160-4 16-8 29-18 43zm215-551c-16 18-92 195-73 208 46 2 100-12 123-31-5-30-32-162-38-171-2-3-6-5-12-6" id="z"/><use transform="matrix(0.02244444444444443,0,0,0.02244444444444443,0,0)" xlink:href="#z" id="g"/><g id="h"><use transform="matrix(0.02244444444444443,0,0,0.02244444444444443,0,0)" xlink:href="#q"/><use transform="matrix(0.02244444444444443,0,0,0.02244444444444443,16.137555555555544,0)" xlink:href="#p"/><use transform="matrix(0.02244444444444443,0,0,0.02244444444444443,34.16044444444442,0)" xlink:href="#v"/></g><path d="M21-302C-7-136 9 24 196-12c147-28 263-93 386-142 57-23 26-120-26-120-111 32-240 115-378 126-13 1-22-26-25-45 30-174 59-350 88-524 10-62-86-124-120-61-39 73-49 196-69 277-19 77-22 145-31 199" id="A"/><path d="M722-498c18-70 6-160 6-241 0-38 16-57 49-57 55 0 82 64 82 193 1 204-63 347-126 491-54 125-124 110-196 9-30-42-54-91-82-146-27-53-43-79-49-79-8-17-88 136-114 182C269-106 193 9 170-1 96-15 86-47 66-129 33-267 17-480 18-657c0-70 18-105 54-105 39 0 66 36 68 87 4 137-4 277 12 406 12 100 67-12 84-47 47-96 102-197 139-285 18-41 78-38 96-4 52 97 51 251 110 344 50 78 71 31 104-70 17-53 22-108 37-167" id="B"/><g id="i"><use transform="matrix(0.02244444444444443,0,0,0.02244444444444443,0,0)" xlink:href="#A"/><use transform="matrix(0.02244444444444443,0,0,0.02244444444444443,13.803333333333324,0)" xlink:href="#p"/><use transform="matrix(0.02244444444444443,0,0,0.02244444444444443,31.826222222222203,0)" xlink:href="#B"/></g><path d="M39-49c-7-93 9-204-6-289-18-30-12-41 1-77 37-27 19-97 25-162 2-23-27-37-49-40-11-18-14-56 0-71 17-39 273-99 376-109 72-7 163-32 165 45 1 65-62 51-115 66-63 18-176 24-229 55-41 23-20 107-25 176 83-2 166-25 259-33 74-6 91 70 44 97-80 23-228 35-304 57-18 6-27 18-27 35-9 45 6 274-42 299-35 2-92-5-73-49" id="C"/><path d="M24-128c0-158-18-313-5-472 6-74-11-192 62-191 78 1 88 68 113 130 59 143 102 191 174 297 50 73 81 109 92 109 8 0 12-3 13-9 24-163 3-322-12-477-6-63 62-76 101-37 65 64 45 212 54 340 10 141 7 304-15 413-8 15-20 23-37 23-76 0-203-132-244-200-33-54-79-109-116-169l4 4c-9-20-41-55-54-51-14 102-5 244 6 344 3 30-15 69-41 68-9 0-28-1-56-3-44-28-39-45-39-119" id="D"/><g id="j"><use transform="matrix(0.031333333333333324,0,0,0.031333333333333324,0,0)" xlink:href="#C"/><use transform="matrix(0.031333333333333324,0,0,0.031333333333333324,17.32733333333333,0)" xlink:href="#n"/><use transform="matrix(0.031333333333333324,0,0,0.031333333333333324,36.69133333333332,0)" xlink:href="#p"/><use transform="matrix(0.031333333333333324,0,0,0.031333333333333324,61.851999999999975,0)" xlink:href="#D"/><use transform="matrix(0.031333333333333324,0,0,0.031333333333333324,81.93666666666664,0)" xlink:href="#q"/></g><g id="k"><use transform="matrix(0.031333333333333324,0,0,0.031333333333333324,0,0)" xlink:href="#n"/><use transform="matrix(0.031333333333333324,0,0,0.031333333333333324,19.363999999999994,0)" xlink:href="#u"/><use transform="matrix(0.031333333333333324,0,0,0.031333333333333324,40.231999999999985,0)" xlink:href="#z"/><use transform="matrix(0.031333333333333324,0,0,0.031333333333333324,58.62466666666664,0)" xlink:href="#n"/></g><path d="M330-158c82-22 193-18 286-31 38 11 58 81 24 113-25 24-71 25-116 25-135 0-238 34-358 47C61 7 4-52 15-159c12-113 37-213 32-340-2-59 2-121-2-178-2-44 35-62 81-61 104-31 222-52 345-64 68-7 103 34 111 94 2 12-3 22-9 31-33 14-62 15-103 16-100 2-196 10-270 40h-8c-18 23-11 79-15 106-1 13 5 22 16 25 82-10 176-25 264-12 44 7 78 26 71 72-7 49-76 30-125 30-78 0-138 22-210 29-24 1-35 28-36 52-2 41-10 83-8 126-19 84 122 51 181 35" id="E"/><path d="M697 1c1 28-21 55-50 54-21 0-46-18-77-52-32-35-51-52-56-52C390 2 288 19 176-28 69-73 12-126 13-276c0-184 157-386 282-467 76-50 243-89 339-27 58 37 109 80 135 146 29 74 35 147 3 242-27 79-64 141-111 199-18 23-27 38-27 44 0 19 74 109 63 140zM448-200c12-68-47-222 52-222 51 0 64 41 70 89 9 80 60-19 72-41 20-37 29-84 29-134 1-93-48-165-140-161-161 7-233 84-316 209-53 79-80 143-80 192-1 114 135 154 246 114 40-14 63-27 67-46" id="F"/><g id="l"><use transform="matrix(0.02688888888888888,0,0,0.02688888888888888,0,0)" xlink:href="#E"/><use transform="matrix(0.02688888888888888,0,0,0.02688888888888888,17.907999999999994,0)" xlink:href="#D"/><use transform="matrix(0.02688888888888888,0,0,0.02688888888888888,35.143777777777764,0)" xlink:href="#F"/><use transform="matrix(0.02688888888888888,0,0,0.02688888888888888,56.869999999999976,0)" xlink:href="#t"/><use transform="matrix(0.02688888888888888,0,0,0.02688888888888888,75.77288888888886,0)" xlink:href="#u"/><use transform="matrix(0.02688888888888888,0,0,0.02688888888888888,93.68088888888886,0)" xlink:href="#t"/><use transform="matrix(0.02688888888888888,0,0,0.02688888888888888,112.58377777777774,0)" xlink:href="#u"/></g></defs></g></svg>