<svg xmlns="http://www.w3.org/2000/svg" xmlns:xlink="http://www.w3.org/1999/xlink" xmlns:lucid="lucid" width="1239" height="519"><g transform="translate(-178 -147)" lucid:page-tab-id="0_0"><path d="M0 0h1870.4v1323.2H0z" fill="#fff"/><path d="M200 160h1200v110.96H200z" stroke="#000" stroke-opacity="0" stroke-width="2" fill="#fff" fill-opacity="0"/><use xlink:href="#a" transform="matrix(1,0,0,1,205,165) translate(527.9345555555556 41.247222222222206)"/><use xlink:href="#b" transform="matrix(1,0,0,1,205,165) translate(337.4000000000002 79.6725555555555)"/><use xlink:href="#c" transform="matrix(1,0,0,1,205,165) translate(439.86755555555567 79.6725555555555)"/><use xlink:href="#d" transform="matrix(1,0,0,1,205,165) translate(462.3360000000001 79.6725555555555)"/><use xlink:href="#e" transform="matrix(1,0,0,1,205,165) translate(585.8766666666667 79.6725555555555)"/><use xlink:href="#d" transform="matrix(1,0,0,1,205,165) translate(649.4537777777778 79.6725555555555)"/><use xlink:href="#f" transform="matrix(1,0,0,1,205,165) translate(772.9944444444443 79.6725555555555)"/><path d="M200 280h160v120H200z" stroke="#000" stroke-width="2" fill="#c1e4f7"/><use xlink:href="#g" transform="matrix(1,0,0,1,205,285) translate(12.550555555555583 62.761111111111106)"/><path d="M343 580h770.03M343.08 580H340" stroke="#000" stroke-width="6" fill="none"/><path d="M1130.3 580l-14.27 4.64v-9.28z" stroke="#000" stroke-width="6"/><path d="M660 420h160v120H660z" stroke="#000" stroke-width="2" fill="#fff"/><use xlink:href="#h" transform="matrix(1,0,0,1,665,425) translate(66.47622222222222 62.761111111111106)"/><path d="M820 420h160v120H820z" stroke="#000" stroke-width="2" fill="#fff"/><use xlink:href="#i" transform="matrix(1,0,0,1,825,425) translate(66.35522222222222 62.761111111111106)"/><path d="M1040 420h160v120h-160z" stroke="#000" stroke-width="2" fill="#fff"/><use xlink:href="#j" transform="matrix(1,0,0,1,1045,425) translate(67.10811111111111 62.761111111111106)"/><path d="M500 420h160v120H500z" stroke="#000" stroke-width="2" fill="#fff"/><use xlink:href="#k" transform="matrix(1,0,0,1,505,425) translate(66.87955555555556 62.761111111111106)"/><path d="M1000 600h240v60h-240z" stroke="#000" stroke-opacity="0" stroke-width="2" fill="#fff" fill-opacity="0"/><use xlink:href="#l" transform="matrix(1,0,0,1,1005,605) translate(62.767333333333355 34.44166666666666)"/><path d="M280 402v98h141.5" stroke="#000" stroke-width="2" fill="none"/><path d="M281 402.03h-2V401h2z"/><path d="M436.76 500l-14.26 4.64v-9.28z" stroke="#000" stroke-width="2"/><path d="M240 600h240v60H240z" stroke="#000" stroke-opacity="0" stroke-width="2" fill="#fff" fill-opacity="0"/><use xlink:href="#m" transform="matrix(1,0,0,1,245,605) translate(76.00566666666668 34.44166666666666)"/><path d="M280 440h240v60H280z" stroke="#000" stroke-opacity="0" stroke-width="2" fill="#fff" fill-opacity="0"/><use xlink:href="#n" transform="matrix(1,0,0,1,285,445) translate(38.96966666666668 34.44166666666666)"/><path d="M1202 480h139.5" stroke="#000" stroke-width="2" fill="none"/><path d="M1202.03 481H1201v-2h1.03z"/><path d="M1356.76 480l-14.26 4.64v-9.28z" stroke="#000" stroke-width="2"/><path d="M1200 420h240v60h-240z" stroke="#000" stroke-opacity="0" stroke-width="2" fill="#fff" fill-opacity="0"/><g><use xlink:href="#o" transform="matrix(1,0,0,1,1205,425) translate(39.54933333333335 34.44166666666666)"/></g><defs><path d="M690-16c1 27-22 53-49 52-21 0-47-17-78-51-31-35-50-52-55-52C384-16 286 0 174-46 66-91 12-146 12-292c0-165 91-286 178-377 58-61 105-100 201-130 173-55 319 38 370 162 9 21 40 127 19 177-19 105-68 191-126 260-19 22-27 38-27 44 1 18 74 108 63 140zM445-229c4-68-43-207 50-207 52 0 63 37 68 87 8 80 61-19 73-41 58-107 35-292-110-292-94 0-188 52-242 114-50 58-151 211-151 284 0 83 72 131 159 129 48-1 160-25 153-74" id="p"/><path d="M106-737c41-53 131 12 108 86-42 139-71 285-71 455 0 88 72 66 143 48 49-12 128-35 183-63 38-19 36-69 44-119 17-114 31-247 31-354 0-57 26-85 79-85 37 0 55 27 55 81 0 190-34 397-59 573 4 31 20 93-13 105-8 10-30 7-65-8-16-20-33-38-51-54C397-48 305 0 205 0 79 0 5-43 13-176c13-196 50-391 93-561" id="q"/><path d="M330-158c82-22 193-18 286-31 38 11 58 81 24 113-25 24-71 25-116 25-135 0-238 34-358 47C61 7 4-52 15-159c12-113 37-213 32-340-2-59 2-121-2-178-2-44 35-62 81-61 104-31 222-52 345-64 68-7 103 34 111 94 2 12-3 22-9 31-33 14-62 15-103 16-100 2-196 10-270 40h-8c-18 23-11 79-15 106-1 13 5 22 16 25 82-10 176-25 264-12 44 7 78 26 71 72-7 49-76 30-125 30-78 0-138 22-210 29-24 1-35 28-36 52-2 41-10 83-8 126-19 84 122 51 181 35" id="r"/><path d="M95-352c46 0 98-50 98-97 0-70-128-102-164-40-34 59-2 137 66 137zM93-47c47 0 96-50 96-96 0-41-53-72-92-72-54-1-84 29-84 81 0 50 30 87 80 87" id="s"/><g id="a"><use transform="matrix(0.03577777777777775,0,0,0.03577777777777775,0,0)" xlink:href="#p"/><use transform="matrix(0.03577777777777775,0,0,0.03577777777777775,28.90844444444442,0)" xlink:href="#q"/><use transform="matrix(0.03577777777777775,0,0,0.03577777777777775,54.06022222222218,0)" xlink:href="#r"/><use transform="matrix(0.03577777777777775,0,0,0.03577777777777775,77.88822222222217,0)" xlink:href="#q"/><use transform="matrix(0.03577777777777775,0,0,0.03577777777777775,103.03999999999992,0)" xlink:href="#r"/><use transform="matrix(0.03577777777777775,0,0,0.03577777777777775,126.86799999999991,0)" xlink:href="#s"/></g><path d="M39-49c-7-93 9-204-6-289-18-30-12-41 1-77 37-27 19-97 25-162 2-23-27-37-49-40-11-18-14-56 0-71 17-39 273-99 376-109 72-7 163-32 165 45 1 65-62 51-115 66-63 18-176 24-229 55-41 23-20 107-25 176 83-2 166-25 259-33 74-6 91 70 44 97-80 23-228 35-304 57-18 6-27 18-27 35-9 45 6 274-42 299-35 2-92-5-73-49" id="t"/><path d="M292-638c-67 2-113 14-176 21-81 9-112-68-58-103 132-46 304-52 470-66l65 5c50 52 43 111-50 111-45 0-75 15-112 18-18 16-19 83-24 152-7 108-21 214-33 322-5 46 36 20 67 20 54 0 81-10 139-16 43 25 50 62 23 110-151 29-311 50-490 79C58 24-8 22 3-44c14-83 161-45 224-90 22-16 24-69 29-107 17-126 33-258 36-397" id="u"/><path d="M44-443c79-191 208-366 448-366 141 0 239 118 267 253 46 222-61 413-213 490-83 42-221 78-338 30-55-23-106-43-129-82-26-14-80-140-57-202 2-41 8-89 22-123zm103 115c1 136 75 191 208 191 130 0 180-50 241-135 38-53 55-111 55-169 0-109-73-236-179-227-143 12-260 151-311 271-9 24-14 47-14 69" id="v"/><g id="b"><use transform="matrix(0.03577777777777775,0,0,0.03577777777777775,0,0)" xlink:href="#t"/><use transform="matrix(0.03577777777777775,0,0,0.03577777777777775,19.785111111111096,0)" xlink:href="#u"/><use transform="matrix(0.03577777777777775,0,0,0.03577777777777775,43.32688888888885,0)" xlink:href="#t"/><use transform="matrix(0.03577777777777775,0,0,0.03577777777777775,63.11199999999995,0)" xlink:href="#v"/></g><path d="M44-228v-78h244v78H44" id="w"/><use transform="matrix(0.03577777777777775,0,0,0.03577777777777775,0,0)" xlink:href="#w" id="c"/><path d="M292-638c-67 2-113 14-176 21-81 9-112-68-58-103 132-46 304-52 470-66l65 5c50 52 43 111-50 111-45 0-75 15-112 18-18 16-19 83-24 152-7 108-21 214-33 322-5 46 36 20 67 20 54 0 81-10 139-16 43 25 50 62 23 110-151 29-311 50-490 79C58 24-8 22 3-44c14-83 161-45 224-90 22-16 24-69 29-107 17-126 33-258 36-397" id="x"/><path d="M608-642l-20 77c-36 56-69 94-113 138-49 48-58 40-29 81 33 46 69 89 97 147 44 89 52 141 40 147-3 38-20 49-63 52-68 5-97-106-129-160-40-68-56-162-144-164-53-1-27 78-45 121-7 56-12 123-28 170C157-4 113 24 66-1 46-11 40-39 49-87c19-111 19-139 19-313 0-144 1-187-40-242-27-37-13-94 26-108 103-36 250-59 389-41 63 8 182 85 165 149zm-140 11c-10-39-42-58-96-57-53 12-154 21-179 43-5 9-8 31-8 65 0 151 19 135 127 94 94-36 148-79 156-145" id="y"/><path d="M371-533c189 0 256 55 239 237-9 91-67 138-157 205C374-33 301-7 236-7 155-7 13-82 18-160c3-44 62-73 96-38 43 44 152 73 218 29 77-51 166-125 156-169 2-44-67-63-119-62-47 1-108 1-155 3C87-393 13-429 1-531c11-87 101-150 165-187 90-52 160-96 290-87 34 2 118 78 115 115-3 35-23 38-55 45-15 4-26-4-33-24-37-64-116-1-164 12-41 11-154 77-154 113 0 15 14 22 41 22 45 0 127-11 165-11" id="z"/><path d="M593-790c58 0 99 54 77 117-5 13-15 16-35 14-70-7-152-3-229 7-31 20-24 81-26 127-4 138-16 277-16 422 0 32 4 70-21 83-26 36-88 7-103-20 1-182 10-346 21-521 2-27 11-81-18-84-73-7-138 11-206 3-20-18-39-18-32-51-3-78 74-91 145-91 129 0 251 6 369-8 25-3 49 2 74 2" id="A"/><g id="d"><use transform="matrix(0.03577777777777775,0,0,0.03577777777777775,0,0)" xlink:href="#t"/><use transform="matrix(0.03577777777777775,0,0,0.03577777777777775,19.785111111111096,0)" xlink:href="#x"/><use transform="matrix(0.03577777777777775,0,0,0.03577777777777775,42.50399999999996,0)" xlink:href="#y"/><use transform="matrix(0.03577777777777775,0,0,0.03577777777777775,64.61466666666661,0)" xlink:href="#z"/><use transform="matrix(0.03577777777777775,0,0,0.03577777777777775,87.19044444444437,0)" xlink:href="#A"/></g><path d="M24-128c0-158-18-313-5-472 6-74-11-192 62-191 78 1 88 68 113 130 59 143 102 191 174 297 50 73 81 109 92 109 8 0 12-3 13-9 24-163 3-322-12-477-6-63 62-76 101-37 65 64 45 212 54 340 10 141 7 304-15 413-8 15-20 23-37 23-76 0-203-132-244-200-33-54-79-109-116-169l4 4c-9-20-41-55-54-51-14 102-5 244 6 344 3 30-15 69-41 68-9 0-28-1-56-3-44-28-39-45-39-119" id="B"/><path d="M112-562c39-1 91 32 91 72 0 47-51 98-97 98-49 0-79-40-79-89 0-53 31-79 85-81zm-4 306c42 0 74 24 74 66 0 64-80 232-149 171-34-30 1-81 1-138 0-62 26-99 74-99" id="C"/><g id="e"><use transform="matrix(0.03577777777777775,0,0,0.03577777777777775,0,0)" xlink:href="#u"/><use transform="matrix(0.03577777777777775,0,0,0.03577777777777775,22.71888888888887,0)" xlink:href="#B"/><use transform="matrix(0.03577777777777775,0,0,0.03577777777777775,45.652444444444406,0)" xlink:href="#C"/></g><g id="f"><use transform="matrix(0.03577777777777775,0,0,0.03577777777777775,0,0)" xlink:href="#v"/><use transform="matrix(0.03577777777777775,0,0,0.03577777777777775,28.72955555555553,0)" xlink:href="#q"/><use transform="matrix(0.03577777777777775,0,0,0.03577777777777775,53.88133333333329,0)" xlink:href="#A"/></g><path d="M330-158c82-22 193-18 286-31 38 11 58 81 24 113-25 24-71 25-116 25-135 0-238 34-358 47C61 7 4-52 15-159c12-113 37-213 32-340-2-59 2-121-2-178-2-44 35-62 81-61 104-31 222-52 345-64 68-7 103 34 111 94 2 12-3 22-9 31-33 14-62 15-103 16-100 2-196 10-270 40h-8c-18 23-11 79-15 106-1 13 5 22 16 25 82-10 176-25 264-12 44 7 78 26 71 72-7 49-76 30-125 30-78 0-138 22-210 29-24 1-35 28-36 52-2 41-10 83-8 126-19 84 122 51 181 35" id="D"/><path d="M21-302C-7-136 9 24 196-12c147-28 263-93 386-142 57-23 26-120-26-120-111 32-240 115-378 126-13 1-22-26-25-45 30-174 59-350 88-524 10-62-86-124-120-61-39 73-49 196-69 277-19 77-22 145-31 199" id="E"/><path d="M629-645c28 177 9 401 28 582 3 29-18 50-47 50-97 0-67-194-71-306-1-24-4-66-3-92 1-39-15-57-30-33-49 79-88 161-139 243-9 15-21 23-34 23-33 0-70-69-89-115-10-23-57-152-73-152-28 0-27 119-31 162-9 93-16 174-27 265-2 3-35 21-48 20-71-3-50-117-43-176 24-211 38-410 84-595 39-67 121 2 138 59 22 73 63 167 84 249 7 23 13 34 20 34 17 0 54-75 107-225 17-48 42-155 115-96 31 25 52 57 59 103" id="F"/><g id="g"><use transform="matrix(0.02688888888888888,0,0,0.02688888888888888,0,0)" xlink:href="#D"/><use transform="matrix(0.02688888888888888,0,0,0.02688888888888888,17.907999999999994,0)" xlink:href="#E"/><use transform="matrix(0.02688888888888888,0,0,0.02688888888888888,34.444666666666656,0)" xlink:href="#r"/><use transform="matrix(0.02688888888888888,0,0,0.02688888888888888,52.35266666666665,0)" xlink:href="#F"/><use transform="matrix(0.02688888888888888,0,0,0.02688888888888888,70.42199999999997,0)" xlink:href="#r"/><use transform="matrix(0.02688888888888888,0,0,0.02688888888888888,88.32999999999996,0)" xlink:href="#B"/><use transform="matrix(0.02688888888888888,0,0,0.02688888888888888,105.56577777777773,0)" xlink:href="#A"/></g><path d="M521-275c40-33 108-24 108 34 0 49-75 103-210 183-80 47-247 72-323 10-66-54-95-101-82-218 12-106 41-136 91-224 55-96 145-209 240-278 32-23 68-33 107-33 86 2 108 61 107 158 0 55-15 82-44 82-55 1-25-116-79-110-132 15-229 223-291 334-48 86-31 226 81 218 122-9 217-92 295-156" id="G"/><use transform="matrix(0.02688888888888888,0,0,0.02688888888888888,0,0)" xlink:href="#G" id="h"/><path d="M68-174c-8-157-1-333-1-488 0-23-21-28-12-60 24-87 141-85 256-77 161 12 317 42 251 258-5 17-40 45-44 60 15 30 85 80 98 123 62 108 25 192-76 258C455-45 341-9 207-4 145-2 19-30 19-85c0-36 51-41 49-89zm137-510c-18 6-26 137-16 192 30 22 66 2 112-6 70-13 158-95 159-132 17-68-169-82-255-54zm-15 330c-15 57-2 155 5 215 6 4 6 12 18 11 101-5 211-32 267-82 52-46 58-91 12-140s-73-73-81-73c-39 14-121 48-173 54-15 2-34 14-48 15" id="H"/><use transform="matrix(0.02688888888888888,0,0,0.02688888888888888,0,0)" xlink:href="#H" id="i"/><path d="M103-24C79 10-2-14 8-59c42-186 129-353 193-524 23-62 63-135 99-197 39-38 106-10 109 47 27 100 51 209 81 307 8 25 72 24 72 63 0 44-26 46-37 75 12 83 46 156 55 243 7 63-106 47-114 11-13-58-36-170-57-231-3-4-7-8-9-14-69 4-134 40-198 52-53 21-53 108-81 160-4 16-8 29-18 43zm215-551c-16 18-92 195-73 208 46 2 100-12 123-31-5-30-32-162-38-171-2-3-6-5-12-6" id="I"/><use transform="matrix(0.02688888888888888,0,0,0.02688888888888888,0,0)" xlink:href="#I" id="j"/><path d="M19-91c0-222 71-428 58-668-3-62 121-44 170-33 118 27 229 50 293 128 44 53 63 97 63 217 0 165-189 328-383 400-36 13-62 45-108 45-66 0-93-23-93-89zm185-582c-30 151-43 322-58 489 5 39 27 28 60 14 129-54 276-147 276-304 0-155-106-203-278-199" id="J"/><use transform="matrix(0.02688888888888888,0,0,0.02688888888888888,0,0)" xlink:href="#J" id="k"/><path d="M44-443c79-191 208-366 448-366 141 0 239 118 267 253 46 222-61 413-213 490-83 42-221 78-338 30-55-23-106-43-129-82-26-14-80-140-57-202 2-41 8-89 22-123zm103 115c1 136 75 191 208 191 130 0 180-50 241-135 38-53 55-111 55-169 0-109-73-236-179-227-143 12-260 151-311 271-9 24-14 47-14 69" id="K"/><g id="l"><use transform="matrix(0.031333333333333324,0,0,0.031333333333333324,0,0)" xlink:href="#t"/><use transform="matrix(0.031333333333333324,0,0,0.031333333333333324,17.32733333333333,0)" xlink:href="#y"/><use transform="matrix(0.031333333333333324,0,0,0.031333333333333324,36.69133333333332,0)" xlink:href="#K"/><use transform="matrix(0.031333333333333324,0,0,0.031333333333333324,61.851999999999975,0)" xlink:href="#B"/><use transform="matrix(0.031333333333333324,0,0,0.031333333333333324,81.93666666666664,0)" xlink:href="#A"/></g><path d="M103-24C79 10-2-14 8-59c42-186 129-353 193-524 23-62 63-135 99-197 39-38 106-10 109 47 27 100 51 209 81 307 8 25 72 24 72 63 0 44-26 46-37 75 12 83 46 156 55 243 7 63-106 47-114 11-13-58-36-170-57-231-3-4-7-8-9-14-69 4-134 40-198 52-53 21-53 108-81 160-4 16-8 29-18 43zm215-551c-16 18-92 195-73 208 46 2 100-12 123-31-5-30-32-162-38-171-2-3-6-5-12-6" id="L"/><g id="m"><use transform="matrix(0.031333333333333324,0,0,0.031333333333333324,0,0)" xlink:href="#y"/><use transform="matrix(0.031333333333333324,0,0,0.031333333333333324,19.363999999999994,0)" xlink:href="#r"/><use transform="matrix(0.031333333333333324,0,0,0.031333333333333324,40.231999999999985,0)" xlink:href="#L"/><use transform="matrix(0.031333333333333324,0,0,0.031333333333333324,58.62466666666664,0)" xlink:href="#y"/></g><path d="M697 1c1 28-21 55-50 54-21 0-46-18-77-52-32-35-51-52-56-52C390 2 288 19 176-28 69-73 12-126 13-276c0-184 157-386 282-467 76-50 243-89 339-27 58 37 109 80 135 146 29 74 35 147 3 242-27 79-64 141-111 199-18 23-27 38-27 44 0 19 74 109 63 140zM448-200c12-68-47-222 52-222 51 0 64 41 70 89 9 80 60-19 72-41 20-37 29-84 29-134 1-93-48-165-140-161-161 7-233 84-316 209-53 79-80 143-80 192-1 114 135 154 246 114 40-14 63-27 67-46" id="M"/><g id="n"><use transform="matrix(0.031333333333333324,0,0,0.031333333333333324,0,0)" xlink:href="#D"/><use transform="matrix(0.031333333333333324,0,0,0.031333333333333324,20.867999999999995,0)" xlink:href="#B"/><use transform="matrix(0.031333333333333324,0,0,0.031333333333333324,40.95266666666666,0)" xlink:href="#M"/><use transform="matrix(0.031333333333333324,0,0,0.031333333333333324,66.26999999999998,0)" xlink:href="#q"/><use transform="matrix(0.031333333333333324,0,0,0.031333333333333324,88.29733333333331,0)" xlink:href="#r"/><use transform="matrix(0.031333333333333324,0,0,0.031333333333333324,109.16533333333331,0)" xlink:href="#q"/><use transform="matrix(0.031333333333333324,0,0,0.031333333333333324,131.19266666666664,0)" xlink:href="#r"/></g><g id="o"><use transform="matrix(0.031333333333333324,0,0,0.031333333333333324,0,0)" xlink:href="#J"/><use transform="matrix(0.031333333333333324,0,0,0.031333333333333324,18.925333333333327,0)" xlink:href="#r"/><use transform="matrix(0.031333333333333324,0,0,0.031333333333333324,39.79333333333332,0)" xlink:href="#M"/><use transform="matrix(0.031333333333333324,0,0,0.031333333333333324,65.11066666666665,0)" xlink:href="#q"/><use transform="matrix(0.031333333333333324,0,0,0.031333333333333324,87.13799999999998,0)" xlink:href="#r"/><use transform="matrix(0.031333333333333324,0,0,0.031333333333333324,108.00599999999997,0)" xlink:href="#q"/><use transform="matrix(0.031333333333333324,0,0,0.031333333333333324,130.0333333333333,0)" xlink:href="#r"/></g></defs></g></svg>