<svg xmlns="http://www.w3.org/2000/svg" xmlns:xlink="http://www.w3.org/1999/xlink" xmlns:lucid="lucid" width="940" height="698"><g transform="translate(-181 0)" lucid:page-tab-id="0_0"><path d="M0 0h1760v1360H0z" fill="#fff"/><path d="M294.72 112l232.67 58.88-14.74 58.17L280 170.17z" fill="none"/><use xlink:href="#a" transform="matrix(0.96943439379233,0.2453506799104045,-0.2453506799104045,0.96943439379233,294.72104079462423,112) translate(81.78900000000002 38.24066666666667)"/><path d="M240 560V200h160v360z" fill="#fff"/><path d="M240 200v360h160V200" stroke="#000" stroke-width="2" fill="none"/><path d="M260 440h120v100H260z" stroke="#000" stroke-width="2" fill="#fff"/><use xlink:href="#b" transform="matrix(1,0,0,1,265,445) translate(46.30366666666667 53.19166666666666)"/><path d="M260 320h120v100H260z" stroke="#000" stroke-width="2" fill="#fff"/><use xlink:href="#c" transform="matrix(1,0,0,1,265,325) translate(45.42633333333333 53.19166666666666)"/><path d="M260 20h120v100H260z" stroke="#000" stroke-width="2" fill="#fff"/><use xlink:href="#d" transform="matrix(1,0,0,1,265,25) translate(45.56733333333334 53.19166666666666)"/><path d="M920 189.02L1131.3 75.2l28.45 52.83-211.3 113.82z" fill="none"/><use xlink:href="#e" transform="matrix(0.8803871895841062,-0.47425562349454425,0.47425562349454425,0.8803871895841062,919.9999999999999,189.02417253484055) translate(89.74766666666667 38.24066666666667)"/><path d="M880 560V200h160v360z" fill="#fff"/><path d="M880 200v360h160V200" stroke="#000" stroke-width="2" fill="none"/><path d="M900 440h120v100H900z" stroke="#000" stroke-width="2" fill="#fff"/><use xlink:href="#b" transform="matrix(1,0,0,1,905,445) translate(46.30366666666667 53.19166666666666)"/><path d="M900 320h120v100H900z" stroke="#000" stroke-width="2" fill="#fff"/><use xlink:href="#c" transform="matrix(1,0,0,1,905,325) translate(45.42633333333333 53.19166666666666)"/><path d="M900 20h120v100H900z" stroke="#000" stroke-width="2" fill="#fff"/><use xlink:href="#d" transform="matrix(1,0,0,1,905,25) translate(45.56733333333334 53.19166666666666)"/><path d="M560 561.33V200h160v361.33z" fill="#fff"/><path d="M560 200v361.33h160V200" stroke="#000" stroke-width="2" fill="none"/><path d="M580 441.33h120v100H580z" stroke="#000" stroke-width="2" fill="#fff"/><use xlink:href="#b" transform="matrix(1,0,0,1,585,446.33333333333326) translate(46.30366666666667 53.19166666666666)"/><path d="M580 321.33h120v100H580z" stroke="#000" stroke-width="2" fill="#fff"/><use xlink:href="#c" transform="matrix(1,0,0,1,585,326.33333333333326) translate(45.42633333333333 53.19166666666666)"/><path d="M580 200h120v100H580z" stroke="#000" stroke-width="2" fill="#fff"/><use xlink:href="#d" transform="matrix(1,0,0,1,585,205) translate(45.56733333333334 53.19166666666666)"/><path d="M329.63 120.3l-.57 56.32 9.63.1-19.44 17.13-19.08-17.52 9.62.1.57-56.33zM949.63 193.47v-56.14H940L959.26 120l19.26 17.33h-9.63v56.14z" stroke="#000" stroke-width="2" fill="#fff"/><path d="M240 580h800v110.96H240z" stroke="#000" stroke-opacity="0" stroke-width="2" fill="#fff" fill-opacity="0"/><g><use xlink:href="#f" transform="matrix(1,0,0,1,245,585) translate(321.95877777777787 41.247222222222206)"/><use xlink:href="#g" transform="matrix(1,0,0,1,245,585) translate(149.76033333333353 79.6725555555555)"/><use xlink:href="#h" transform="matrix(1,0,0,1,245,585) translate(250.11700000000013 79.6725555555555)"/><use xlink:href="#i" transform="matrix(1,0,0,1,245,585) translate(272.58544444444453 79.6725555555555)"/><use xlink:href="#j" transform="matrix(1,0,0,1,245,585) translate(374.51633333333336 79.6725555555555)"/><use xlink:href="#k" transform="matrix(1,0,0,1,245,585) translate(438.09344444444446 79.6725555555555)"/><use xlink:href="#l" transform="matrix(1,0,0,1,245,585) translate(561.634111111111 79.6725555555555)"/></g><defs><path d="M23-677c-68-88 127-122 212-122 113 0 253 24 291 82 92 144-48 310-153 365-52 27-102 48-161 69-56 20-53 15-58 80-4 49-8 103-13 153-3 31-19 46-43 46-44 0-65-28-63-81 5-162 8-330 16-486 3-53-4-75-28-106zm415 73c0-44-44-66-132-66-78 0-124 8-135 26-10 16-14 89-14 218 0 44 22 39 57 25 83-34 224-115 224-203" id="m"/><path d="M106-737c41-53 131 12 108 86-42 139-71 285-71 455 0 88 72 66 143 48 49-12 128-35 183-63 38-19 36-69 44-119 17-114 31-247 31-354 0-57 26-85 79-85 37 0 55 27 55 81 0 190-34 397-59 573 4 31 20 93-13 105-8 10-30 7-65-8-16-20-33-38-51-54C397-48 305 0 205 0 79 0 5-43 13-176c13-196 50-391 93-561" id="n"/><path d="M371-533c189 0 256 55 239 237-9 91-67 138-157 205C374-33 301-7 236-7 155-7 13-82 18-160c3-44 62-73 96-38 43 44 152 73 218 29 77-51 166-125 156-169 2-44-67-63-119-62-47 1-108 1-155 3C87-393 13-429 1-531c11-87 101-150 165-187 90-52 160-96 290-87 34 2 118 78 115 115-3 35-23 38-55 45-15 4-26-4-33-24-37-64-116-1-164 12-41 11-154 77-154 113 0 15 14 22 41 22 45 0 127-11 165-11" id="o"/><path d="M107-780c100 15 51 176 51 272 0 29 23 25 56 24 33-11 175 4 171-42 9-67 4-153 14-224 12-14 39-57 70-50 51 0 74 34 69 103L490-47c-6 28-25 57-57 56-118-5-54-182-54-299 0-34 3-75-15-85-65 6-127 12-191 19-52 29-23 162-29 239C135-7 87 19 22-30 10-48 7-67 13-88c-16-100 8-215 8-322 0-127-9-364 86-370" id="p"/><g id="a"><use transform="matrix(0.031333333333333324,0,0,0.031333333333333324,0,0)" xlink:href="#m"/><use transform="matrix(0.031333333333333324,0,0,0.031333333333333324,17.671999999999993,0)" xlink:href="#n"/><use transform="matrix(0.031333333333333324,0,0,0.031333333333333324,39.69933333333332,0)" xlink:href="#o"/><use transform="matrix(0.031333333333333324,0,0,0.031333333333333324,59.470666666666645,0)" xlink:href="#p"/></g><path d="M103-24C79 10-2-14 8-59c42-186 129-353 193-524 23-62 63-135 99-197 39-38 106-10 109 47 27 100 51 209 81 307 8 25 72 24 72 63 0 44-26 46-37 75 12 83 46 156 55 243 7 63-106 47-114 11-13-58-36-170-57-231-3-4-7-8-9-14-69 4-134 40-198 52-53 21-53 108-81 160-4 16-8 29-18 43zm215-551c-16 18-92 195-73 208 46 2 100-12 123-31-5-30-32-162-38-171-2-3-6-5-12-6" id="q"/><use transform="matrix(0.031333333333333324,0,0,0.031333333333333324,0,0)" xlink:href="#q" id="b"/><path d="M68-174c-8-157-1-333-1-488 0-23-21-28-12-60 24-87 141-85 256-77 161 12 317 42 251 258-5 17-40 45-44 60 15 30 85 80 98 123 62 108 25 192-76 258C455-45 341-9 207-4 145-2 19-30 19-85c0-36 51-41 49-89zm137-510c-18 6-26 137-16 192 30 22 66 2 112-6 70-13 158-95 159-132 17-68-169-82-255-54zm-15 330c-15 57-2 155 5 215 6 4 6 12 18 11 101-5 211-32 267-82 52-46 58-91 12-140s-73-73-81-73c-39 14-121 48-173 54-15 2-34 14-48 15" id="r"/><use transform="matrix(0.031333333333333324,0,0,0.031333333333333324,0,0)" xlink:href="#r" id="c"/><path d="M521-275c40-33 108-24 108 34 0 49-75 103-210 183-80 47-247 72-323 10-66-54-95-101-82-218 12-106 41-136 91-224 55-96 145-209 240-278 32-23 68-33 107-33 86 2 108 61 107 158 0 55-15 82-44 82-55 1-25-116-79-110-132 15-229 223-291 334-48 86-31 226 81 218 122-9 217-92 295-156" id="s"/><use transform="matrix(0.031333333333333324,0,0,0.031333333333333324,0,0)" xlink:href="#s" id="d"/><path d="M44-443c79-191 208-366 448-366 141 0 239 118 267 253 46 222-61 413-213 490-83 42-221 78-338 30-55-23-106-43-129-82-26-14-80-140-57-202 2-41 8-89 22-123zm103 115c1 136 75 191 208 191 130 0 180-50 241-135 38-53 55-111 55-169 0-109-73-236-179-227-143 12-260 151-311 271-9 24-14 47-14 69" id="t"/><path d="M23-677c-68-88 127-122 212-122 113 0 253 24 291 82 92 144-48 310-153 365-52 27-102 48-161 69-56 20-53 15-58 80-4 49-8 103-13 153-3 31-19 46-43 46-44 0-65-28-63-81 5-162 8-330 16-486 3-53-4-75-28-106zm415 73c0-44-44-66-132-66-78 0-124 8-135 26-10 16-14 89-14 218 0 44 22 39 57 25 83-34 224-115 224-203" id="u"/><g id="e"><use transform="matrix(0.031333333333333324,0,0,0.031333333333333324,0,0)" xlink:href="#m"/><use transform="matrix(0.031333333333333324,0,0,0.031333333333333324,17.671999999999993,0)" xlink:href="#t"/><use transform="matrix(0.031333333333333324,0,0,0.031333333333333324,42.832666666666654,0)" xlink:href="#u"/></g><path d="M371-533c189 0 256 55 239 237-9 91-67 138-157 205C374-33 301-7 236-7 155-7 13-82 18-160c3-44 62-73 96-38 43 44 152 73 218 29 77-51 166-125 156-169 2-44-67-63-119-62-47 1-108 1-155 3C87-393 13-429 1-531c11-87 101-150 165-187 90-52 160-96 290-87 34 2 118 78 115 115-3 35-23 38-55 45-15 4-26-4-33-24-37-64-116-1-164 12-41 11-154 77-154 113 0 15 14 22 41 22 45 0 127-11 165-11" id="v"/><path d="M593-790c58 0 99 54 77 117-5 13-15 16-35 14-70-7-152-3-229 7-31 20-24 81-26 127-4 138-16 277-16 422 0 32 4 70-21 83-26 36-88 7-103-20 1-182 10-346 21-521 2-27 11-81-18-84-73-7-138 11-206 3-20-18-39-18-32-51-3-78 74-91 145-91 129 0 251 6 369-8 25-3 49 2 74 2" id="w"/><path d="M103-24C79 10-2-14 8-59c42-186 129-353 193-524 23-62 63-135 99-197 39-38 106-10 109 47 27 100 51 209 81 307 8 25 72 24 72 63 0 44-26 46-37 75 12 83 46 156 55 243 7 63-106 47-114 11-13-58-36-170-57-231-3-4-7-8-9-14-69 4-134 40-198 52-53 21-53 108-81 160-4 16-8 29-18 43zm215-551c-16 18-92 195-73 208 46 2 100-12 123-31-5-30-32-162-38-171-2-3-6-5-12-6" id="x"/><path d="M521-275c40-33 108-24 108 34 0 49-75 103-210 183-80 47-247 72-323 10-66-54-95-101-82-218 12-106 41-136 91-224 55-96 145-209 240-278 32-23 68-33 107-33 86 2 108 61 107 158 0 55-15 82-44 82-55 1-25-116-79-110-132 15-229 223-291 334-48 86-31 226 81 218 122-9 217-92 295-156" id="y"/><path d="M583 1c26 5 52-17 51-41 24-60-22-103-43-144-74-69-132-138-184-228-37-64 44-88 81-120 65-56 138-104 195-168 35-39 5-108-40-113-66 17-104 68-150 105-81 65-158 127-245 187-18 12-48 33-70 13-6-6-8-14-7-23 3-63 18-122 28-181-3-53-39-88-92-91-82 12-51 140-71 216 1 133-13 257-20 381-3 58-27 167 27 193 35 29 78-2 98-20 30-59 16-164 24-251 3-31 38-61 73-59 78 41 118 121 174 184 38 44 71 96 112 139 15 15 32 34 59 21" id="z"/><path d="M95-352c46 0 98-50 98-97 0-70-128-102-164-40-34 59-2 137 66 137zM93-47c47 0 96-50 96-96 0-41-53-72-92-72-54-1-84 29-84 81 0 50 30 87 80 87" id="A"/><g id="f"><use transform="matrix(0.03577777777777775,0,0,0.03577777777777775,0,0)" xlink:href="#v"/><use transform="matrix(0.03577777777777775,0,0,0.03577777777777775,22.57577777777776,0)" xlink:href="#w"/><use transform="matrix(0.03577777777777775,0,0,0.03577777777777775,48.29999999999996,0)" xlink:href="#x"/><use transform="matrix(0.03577777777777775,0,0,0.03577777777777775,69.3015555555555,0)" xlink:href="#y"/><use transform="matrix(0.03577777777777775,0,0,0.03577777777777775,91.9846666666666,0)" xlink:href="#z"/><use transform="matrix(0.03577777777777775,0,0,0.03577777777777775,117.24377777777767,0)" xlink:href="#o"/><use transform="matrix(0.03577777777777775,0,0,0.03577777777777775,139.81955555555544,0)" xlink:href="#A"/></g><path d="M21-302C-7-136 9 24 196-12c147-28 263-93 386-142 57-23 26-120-26-120-111 32-240 115-378 126-13 1-22-26-25-45 30-174 59-350 88-524 10-62-86-124-120-61-39 73-49 196-69 277-19 77-22 145-31 199" id="B"/><path d="M292-638c-67 2-113 14-176 21-81 9-112-68-58-103 132-46 304-52 470-66l65 5c50 52 43 111-50 111-45 0-75 15-112 18-18 16-19 83-24 152-7 108-21 214-33 322-5 46 36 20 67 20 54 0 81-10 139-16 43 25 50 62 23 110-151 29-311 50-490 79C58 24-8 22 3-44c14-83 161-45 224-90 22-16 24-69 29-107 17-126 33-258 36-397" id="C"/><path d="M39-49c-7-93 9-204-6-289-18-30-12-41 1-77 37-27 19-97 25-162 2-23-27-37-49-40-11-18-14-56 0-71 17-39 273-99 376-109 72-7 163-32 165 45 1 65-62 51-115 66-63 18-176 24-229 55-41 23-20 107-25 176 83-2 166-25 259-33 74-6 91 70 44 97-80 23-228 35-304 57-18 6-27 18-27 35-9 45 6 274-42 299-35 2-92-5-73-49" id="D"/><path d="M44-443c79-191 208-366 448-366 141 0 239 118 267 253 46 222-61 413-213 490-83 42-221 78-338 30-55-23-106-43-129-82-26-14-80-140-57-202 2-41 8-89 22-123zm103 115c1 136 75 191 208 191 130 0 180-50 241-135 38-53 55-111 55-169 0-109-73-236-179-227-143 12-260 151-311 271-9 24-14 47-14 69" id="E"/><g id="g"><use transform="matrix(0.03577777777777775,0,0,0.03577777777777775,0,0)" xlink:href="#B"/><use transform="matrix(0.03577777777777775,0,0,0.03577777777777775,17.67422222222221,0)" xlink:href="#C"/><use transform="matrix(0.03577777777777775,0,0,0.03577777777777775,41.215999999999966,0)" xlink:href="#D"/><use transform="matrix(0.03577777777777775,0,0,0.03577777777777775,61.00111111111106,0)" xlink:href="#E"/></g><path d="M44-228v-78h244v78H44" id="F"/><use transform="matrix(0.03577777777777775,0,0,0.03577777777777775,0,0)" xlink:href="#F" id="h"/><g id="i"><use transform="matrix(0.03577777777777775,0,0,0.03577777777777775,0,0)" xlink:href="#B"/><use transform="matrix(0.03577777777777775,0,0,0.03577777777777775,22.003333333333316,0)" xlink:href="#x"/><use transform="matrix(0.03577777777777775,0,0,0.03577777777777775,43.00488888888886,0)" xlink:href="#o"/><use transform="matrix(0.03577777777777775,0,0,0.03577777777777775,65.58066666666662,0)" xlink:href="#w"/></g><path d="M24-128c0-158-18-313-5-472 6-74-11-192 62-191 78 1 88 68 113 130 59 143 102 191 174 297 50 73 81 109 92 109 8 0 12-3 13-9 24-163 3-322-12-477-6-63 62-76 101-37 65 64 45 212 54 340 10 141 7 304-15 413-8 15-20 23-37 23-76 0-203-132-244-200-33-54-79-109-116-169l4 4c-9-20-41-55-54-51-14 102-5 244 6 344 3 30-15 69-41 68-9 0-28-1-56-3-44-28-39-45-39-119" id="G"/><path d="M112-562c39-1 91 32 91 72 0 47-51 98-97 98-49 0-79-40-79-89 0-53 31-79 85-81zm-4 306c42 0 74 24 74 66 0 64-80 232-149 171-34-30 1-81 1-138 0-62 26-99 74-99" id="H"/><g id="j"><use transform="matrix(0.03577777777777775,0,0,0.03577777777777775,0,0)" xlink:href="#C"/><use transform="matrix(0.03577777777777775,0,0,0.03577777777777775,22.71888888888887,0)" xlink:href="#G"/><use transform="matrix(0.03577777777777775,0,0,0.03577777777777775,45.652444444444406,0)" xlink:href="#H"/></g><path d="M292-638c-67 2-113 14-176 21-81 9-112-68-58-103 132-46 304-52 470-66l65 5c50 52 43 111-50 111-45 0-75 15-112 18-18 16-19 83-24 152-7 108-21 214-33 322-5 46 36 20 67 20 54 0 81-10 139-16 43 25 50 62 23 110-151 29-311 50-490 79C58 24-8 22 3-44c14-83 161-45 224-90 22-16 24-69 29-107 17-126 33-258 36-397" id="I"/><path d="M608-642l-20 77c-36 56-69 94-113 138-49 48-58 40-29 81 33 46 69 89 97 147 44 89 52 141 40 147-3 38-20 49-63 52-68 5-97-106-129-160-40-68-56-162-144-164-53-1-27 78-45 121-7 56-12 123-28 170C157-4 113 24 66-1 46-11 40-39 49-87c19-111 19-139 19-313 0-144 1-187-40-242-27-37-13-94 26-108 103-36 250-59 389-41 63 8 182 85 165 149zm-140 11c-10-39-42-58-96-57-53 12-154 21-179 43-5 9-8 31-8 65 0 151 19 135 127 94 94-36 148-79 156-145" id="J"/><g id="k"><use transform="matrix(0.03577777777777775,0,0,0.03577777777777775,0,0)" xlink:href="#D"/><use transform="matrix(0.03577777777777775,0,0,0.03577777777777775,19.785111111111096,0)" xlink:href="#I"/><use transform="matrix(0.03577777777777775,0,0,0.03577777777777775,42.50399999999996,0)" xlink:href="#J"/><use transform="matrix(0.03577777777777775,0,0,0.03577777777777775,64.61466666666661,0)" xlink:href="#o"/><use transform="matrix(0.03577777777777775,0,0,0.03577777777777775,87.19044444444437,0)" xlink:href="#w"/></g><g id="l"><use transform="matrix(0.03577777777777775,0,0,0.03577777777777775,0,0)" xlink:href="#E"/><use transform="matrix(0.03577777777777775,0,0,0.03577777777777775,28.72955555555553,0)" xlink:href="#n"/><use transform="matrix(0.03577777777777775,0,0,0.03577777777777775,53.88133333333329,0)" xlink:href="#w"/></g></defs></g></svg>